<svg width="72" height="94" viewBox="0 0 72 94" fill="none" xmlns="http://www.w3.org/2000/svg">
<path fill-rule="evenodd" clip-rule="evenodd" d="M58.5409 31.5738H63C67.9049 31.5738 71.918 35.5869 71.918 40.4918V85.082C71.918 89.9869 67.9049 94 63 94H9.49176C4.58684 94 0.57373 89.9869 0.57373 85.082V40.4918C0.57373 35.5869 4.58684 31.5738 9.49176 31.5738H13.9508V22.6557C13.9508 10.3489 23.939 0.360657 36.2459 0.360657C48.5527 0.360657 58.5409 10.3489 58.5409 22.6557V31.5738ZM36.2459 9.27869C28.8439 9.27869 22.8689 15.2538 22.8689 22.6557V31.5738H49.623V22.6557C49.623 15.2538 43.6479 9.27869 36.2459 9.27869ZM9.4918 85.082V40.4918H63V85.082H9.4918ZM45.1639 62.7869C45.1639 67.6918 41.1508 71.7049 36.2459 71.7049C31.341 71.7049 27.3279 67.6918 27.3279 62.7869C27.3279 57.882 31.341 53.8689 36.2459 53.8689C41.1508 53.8689 45.1639 57.882 45.1639 62.7869Z" fill="white"/>
</svg>
